# xmcd
#
# Track frame offsets:
# 150
# 15690
# 25911
# 37657
# 51504
# 79175
# 88738
# 108057
# 123864
# 141779
# 153830
# 167112
# 173792
# 182490
# 195581
# 216779
# 231924
# 259940
# 278462
# 295850
#
# Disc length: 4187 seconds
#
# Revision: 0
# Processed by: cddbd v1.5.1PL2 Copyright (c) Steve Scherf et al.
# Submitted via: Audion 3.0.2 (http://www.panic.com/audion/)
#
DISCID=07105914
DTITLE=Various Artist - Have these cool tunes
DYEAR=1900
DGENRE=
TTITLE0=I WANNA BE LIKE YOU - NEW YORK NEW YORK/I WANNA BE LIKE YOU (12")
TTITLE1=ST THOMAS - NEW YORK NEW YORK/I WANNA BE LIKE YOU (12")
TTITLE2=LET'S GO LET'S BLOW - NEW YORK NEW YORK/I WANNA BE LIKE YOU (12")
TTITLE3=READY RECKONER - NEW YORK NEW YORK/I WANNA BE LIKE YOU (12")
TTITLE4=GIVE ME MY FREEDOM (CLUB MIX) - SHILLELAGH SISTERS/GIVE ME MY FREEDOM (12")
TTITLE5=TEASIN' CHEATING MAN - SHILLELAGH SISTERS/GIVE ME MY FREEDOM (12")
TTITLE6=DE ANGELO - BONE DIGGERS/EP (12")
TTITLE7=DESIRE - BONE DIGGERS/EP (12")
TTITLE8=MIDNIGHT TRAIN - BONE DIGGERS/EP (12")
TTITLE9=GET YOUR FEET OUT OF MY SHOES
TTITLE10=MILK TRAIN - BOOTHILL FOOT TAPPERS/GET YOUR FEET OUT OF MY SHOES (12")
TTITLE11=TRU BLUES - BOOTHILL FOOT TAPPERS/GET YOUR FEET OUT OF MY SHOES (12")
TTITLE12=PEOPLE GET READY - BOOTHILL FOOT TAPPERS/GET YOUR FEET OUT OF MY SHOES (12")
TTITLE13=CHASING WOMEN - BOOTHILL FOOT TAPPERS/GET YOUR FEET OUT OF MY SHOES (12")
TTITLE14=FOOTSTEPS AT MY DOOR (EXTENDED PLAY) - HELEN and THE HORNS/FOOTSTEPS AT MY DOOR (12")
TTITLE15=SECRET LOVE - HELEN and THE HORNS/FOOTSTEPS AT MY DOOR (12")
TTITLE16=SWING THE MOOD - JIVE BUNNY and THE MASTERMIXERS/SWING THE MOOD (12")
TTITLE17=THE MOOD (RADIOMIX) - JIVE BUNNY and THE MASTERMIXERS/SWING THE MOOD (12")
TTITLE18=GLEN MILLER MEDLEY (THE J.B. EDIT) - JIVE BUNNY and THE MASTERMIXERS/SWING THE MOOD (12")
TTITLE19=SHOUT - LULU AND THE LUVVERS/SHOUT (12")SHOUT  
EXTD=
EXTT0=
EXTT1=
EXTT2=
EXTT3=
EXTT4=
EXTT5=
EXTT6=
EXTT7=
EXTT8=
EXTT9=
EXTT10=
EXTT11=
EXTT12=
EXTT13=
EXTT14=
EXTT15=
EXTT16=
EXTT17=
EXTT18=
EXTT19=
PLAYORDER=
